<?xml version="1.0" encoding="UTF-8"?>
<svg id="_レイヤー_1" data-name="レイヤー 1" xmlns="http://www.w3.org/2000/svg" viewBox="0 0 480.51 321.88">
  <defs>
    <style>
      .cls-1 {
        fill: #fff;
      }
    </style>
  </defs>
  <path class="cls-1" d="M341.37,285.51c-1.68,0-3.34-.02-5-.07-2.1,0-4.22,0-6.33,0-10.29.03-20.94.05-31.66-1.53-9.38-1.38-18.71-3.74-27.72-6.01-1.49-.38-2.97-.75-4.44-1.12l-.56-.14c-7.09-1.8-14.42-3.67-21.7-6.35l-.09-.04c-9.16-3.46-17.83-7.76-26.21-11.92-3.14-1.56-6.38-3.17-9.55-4.68-14.48-6.78-27.72-15.7-40.52-24.32-2.71-1.82-5.41-3.64-8.12-5.44l-.12-.08c-7.91-5.39-8.91-4.83-21.06,1.92l-.32.17c-6.85,3.54-13.22,5.32-19.45,5.44h-.23s-.23,0-.23,0c-3.99-.08-7.69-.5-10.96-.87-9.23-1.05-13.19-1.3-18.31,3.06l-.14.11c-2.65,2.19-5.18,4.96-7.86,7.9-.59.65-1.19,1.3-1.79,1.95-6.15,6.78-15.67,15.85-25.82,20.31-13.13,6.2-26.93,2.45-38.03-.55-2.08-.56-4.05-1.1-5.94-1.56-6.44-1.55-10.41-8.04-8.85-14.48,1.55-6.44,8.04-10.41,14.48-8.85,2.23.54,4.45,1.14,6.6,1.72,8.45,2.29,16.43,4.45,21.57,1.98l.44-.2c4.85-2.09,11.35-7.4,17.85-14.57.64-.69,1.2-1.31,1.77-1.93,3.1-3.4,6.31-6.92,10.24-10.17,13.23-11.22,26.14-9.75,36.51-8.57,2.92.33,5.69.65,8.46.72,2.42-.09,5.14-.94,8.53-2.68,13.34-7.41,25.97-14.32,45.99-.73,2.74,1.82,5.48,3.66,8.21,5.5,12.6,8.49,24.5,16.5,37.37,22.53,3.41,1.63,6.74,3.28,9.96,4.88,8.2,4.07,15.95,7.92,23.98,10.95,6.1,2.24,12.5,3.87,19.27,5.59l.51.13c1.44.36,2.94.74,4.45,1.12,8.44,2.13,17.17,4.33,25.35,5.54,8.95,1.32,18.26,1.3,28.11,1.27,2.22,0,4.44,0,6.65,0h.28c14.63.43,30.29-1.23,49.27-5.21l.21-.04c19.06-3.65,40.4-17,54-28.29,3.2-2.63,6.13-6.73,7.04-9.02,2.42-6.17,9.39-9.21,15.55-6.79,6.17,2.42,9.21,9.39,6.79,15.55-2.52,6.43-8.05,13.79-14.09,18.76-20.53,17.02-44.7,29.48-64.66,33.33-18.68,3.91-34.62,5.77-49.64,5.77Z"/>
  <path class="cls-1" d="M338.11,248.23c-18.4,0-36.81-2.02-54.5-6.07l-.3-.07c-22.9-5.87-42.71-12.92-60.56-21.54l-.11-.06c-19.43-9.64-36.45-23-52.91-35.92-4.36-3.42-8.87-6.96-13.29-10.32-5.28-4.01-6.3-11.54-2.29-16.82,4.01-5.28,11.54-6.3,16.81-2.29,4.57,3.47,9.15,7.07,13.58,10.55,16.2,12.71,31.51,24.72,48.71,33.27,16.35,7.89,34.63,14.39,55.88,19.84,34.45,7.86,71.95,7.19,105.61-1.9,49.79-13.77,59.83-64.47,61.82-85.62.62-6.6,6.47-11.43,13.08-10.82,6.6.62,11.44,6.48,10.82,13.08-2.34,24.77-9.95,47.3-22,65.14-14.06,20.81-33.37,34.73-57.39,41.38-20.17,5.45-41.55,8.18-62.96,8.18Z"/>
  <path class="cls-1" d="M346.99,94.61c-7.35,0-15.09-.89-22.98-2.77-16.56-3.94-31.34-11.7-41.62-21.86-11.67-11.53-16.61-25.49-13.56-38.32s13.75-23.07,29.35-28.12c13.75-4.44,30.45-4.73,47.01-.79,36.88,8.77,61.12,35.2,55.19,60.17-4.67,19.63-26.39,31.68-53.38,31.68ZM322.15,24.01c-6.02,0-11.69.79-16.59,2.38-7.44,2.4-12.32,6.35-13.38,10.83-1.06,4.48,1.52,10.2,7.08,15.69,7.1,7.01,18.14,12.69,30.31,15.58,24.28,5.77,45.08-1.1,47.46-11.11,2.38-10-13.11-25.5-37.39-31.27-5.89-1.4-11.84-2.1-17.48-2.1Z"/>
  <path class="cls-1" d="M163.69,176.7c-5.43,0-10.36-3.72-11.67-9.24-1.53-6.45,2.46-12.92,8.91-14.44,6.61-1.57,13.37-3.03,19.91-4.45,13.84-3,28.14-6.11,41.39-10.25,7.58-2.42,15.95-5.16,24.82-8.13,11.31-3.72,23.01-8.95,34.32-14.01,3.55-1.59,7.1-3.17,10.62-4.71,11.13-4.9,20.93-9.8,32.28-15.48l2.95-1.48c5.99-3,11.66-5.83,16.78-9.16,7.54-5.09,15.09-11.36,22.4-17.43,3.51-2.91,7.14-5.92,10.76-8.8,5.19-4.12,12.74-3.26,16.86,1.93,4.12,5.19,3.26,12.74-1.93,16.86-3.42,2.72-6.79,5.52-10.37,8.48-7.79,6.46-15.84,13.15-24.4,18.92l-.16.11c-6.28,4.09-12.85,7.38-19.21,10.56l-2.95,1.48c-11.15,5.58-21.68,10.84-33.38,16-3.5,1.53-6.97,3.08-10.46,4.64-11.87,5.31-24.14,10.8-36.56,14.88-8.91,2.99-17.4,5.76-25.15,8.23-14.34,4.48-29.18,7.7-43.53,10.82-6.43,1.4-13.08,2.84-19.46,4.35-.93.22-1.86.33-2.78.33Z"/>
  <path class="cls-1" d="M250.87,153.57c-4.35,0-8.55-2.38-10.68-6.52-22.82-44.39-28.65-75.81-.11-134.29,2.91-5.96,10.09-8.43,16.05-5.52,5.96,2.91,8.43,10.09,5.52,16.05-24.36,49.92-19.98,74.13-.11,112.79,3.03,5.89.71,13.13-5.19,16.16-1.76.9-3.63,1.33-5.48,1.33Z"/>
  <path class="cls-1" d="M178.68,173.32c-4.44,0-8.71-2.48-10.79-6.74-18.05-36.99-17.21-69.77,2.81-109.6,2.98-5.92,10.19-8.31,16.11-5.33,5.92,2.98,8.31,10.19,5.33,16.11-16.72,33.25-17.47,58-2.69,88.29,2.91,5.96.44,13.14-5.52,16.05-1.69.83-3.49,1.22-5.25,1.22Z"/>
  <path class="cls-1" d="M274.16,239.15c-4.28,0-8.42-2.3-10.59-6.34-3.13-5.84-.92-13.12,4.92-16.25,4.06-2.18,8.84-3.15,13.45-4.1,2.32-.48,6.2-1.27,7.39-1.89,4.41-2.58,8.9-5.08,13.24-7.51,17.49-9.77,34-18.99,46.63-32.92l.15-.16c6.72-7.14,13.62-15.25,20.29-23.1l1.46-1.71c12.58-14.4,20.46-28.13,22.79-39.69l.05-.22c1.82-8.2.89-18.09-2.74-29.39-2.87-9.13-9.05-18.09-15.31-26.42-3.98-5.3-2.91-12.82,2.39-16.8,5.3-3.98,12.82-2.91,16.8,2.39,7.54,10.04,15.07,21.06,19,33.56,4.92,15.29,6.04,29.35,3.33,41.74-3.22,15.83-12.7,32.84-28.17,50.57l-1.3,1.53c-6.84,8.05-13.91,16.37-21.03,23.93-15.26,16.79-34.26,27.4-52.63,37.66-4.28,2.39-8.71,4.87-12.96,7.35l-.16.09c-4.36,2.46-9.46,3.5-14.39,4.51-2.34.48-5.87,1.2-6.95,1.75-1.8.96-3.74,1.42-5.65,1.42Z"/>
  <path class="cls-1" d="M189.25,275.45c-5.02,0-9.69-3.17-11.38-8.19-2.11-6.28,1.28-13.09,7.56-15.19,6.08-2.04,11.94-4.03,17.8-6.01,7.15-2.42,14.3-4.85,21.88-7.38,6.29-2.1,13.08,1.3,15.18,7.59,2.1,6.29-1.3,13.08-7.59,15.18-7.53,2.51-14.65,4.93-21.76,7.34-5.89,2-11.78,3.99-17.88,6.04-1.27.42-2.55.62-3.82.62Z"/>
  <path class="cls-1" d="M270.78,321.88c-4.73,0-9.21-2.81-11.11-7.46-2.51-6.13.43-13.14,6.56-15.65,9.11-3.73,24.52-11.44,33.66-16.83,4.28-2.53,7.19-5.39,10.56-8.7,2.98-2.94,6.37-6.26,10.91-9.53,5.38-3.87,12.88-2.64,16.75,2.74s2.64,12.88-2.74,16.75c-3.04,2.19-5.38,4.49-8.09,7.15-3.92,3.86-8.37,8.23-15.18,12.25-10.29,6.08-26.45,14.15-36.77,18.38-1.49.61-3.03.9-4.54.9Z"/>
  <path class="cls-1" d="M357.88,247.44c-4.18,0-8.25-2.19-10.46-6.09-3.26-5.77-1.23-13.09,4.54-16.35l3.71-2.09q16.59-9.36,29.99-25.5c9.23-11.46,18.85-23.76,26.11-37.18,12.9-23.5,19.11-50.23,23.49-73.28,1.24-6.51,7.53-10.79,14.03-9.55,6.51,1.24,10.79,7.52,9.55,14.03-4.73,24.9-11.52,53.92-26,80.29-8.21,15.16-18.6,28.48-28.55,40.82l-.11.13c-15.88,19.15-17.7,20.42-36.73,31.15l-3.67,2.07c-1.87,1.06-3.9,1.56-5.9,1.56Z"/>
  <path class="cls-1" d="M202.55,206.7c-5.59,0-10.59-3.93-11.75-9.62-1.32-6.5,2.88-12.83,9.38-14.15,25.34-5.14,45.65-10.89,65.87-18.65l.86-.32c10.88-4.08,22.13-8.3,32.29-13.46,7.06-3.63,29.42-20.12,51.23-40.36,29.04-26.95,35.96-41.05,36.3-44.7-2.29-5.84.33-12.54,6.1-15.23,6.01-2.81,13.15-.21,15.95,5.79,6.46,13.83-4.96,30.04-8.71,35.36-6.7,9.51-16.67,20.58-29.62,32.9-22.73,21.61-49.54,42.06-60.33,47.61-11.4,5.79-23.29,10.25-34.78,14.56l-.77.29c-21.13,8.12-43.28,14.4-69.62,19.74-.8.16-1.61.24-2.4.24ZM387.03,66.16h0,0Z"/>
  <path class="cls-1" d="M380.87,310.92c-1.75,0-3.52-.38-5.2-1.19-14.6-7.03-22.81-15.75-32.32-25.86l-2.2-2.33c-4.55-4.82-4.34-12.41.48-16.96,4.82-4.55,12.41-4.34,16.96.48l2.24,2.37c8.83,9.38,14.66,15.58,25.25,20.68,5.97,2.87,8.48,10.04,5.61,16.02-2.07,4.29-6.36,6.8-10.82,6.8Z"/>
</svg>
