<?xml version="1.0" encoding="UTF-8"?>
<svg id="_レイヤー_1" data-name="レイヤー 1" xmlns="http://www.w3.org/2000/svg" viewBox="0 0 453.06 305.97">
  <defs>
    <style>
      .cls-1 {
        fill: #fff;
      }
    </style>
  </defs>
  <path class="cls-1" d="M323.57,250.21c-24.54.69-48.18-1.94-71.39-8.37-41.92-11.61-77.51-33.96-108.71-63.8-1.07-1.02-2.12-2.08-3.09-3.2-1.22-1.41-1.57-3.02-.29-4.54,1.42-1.7,3.26-1.65,5.02-.62,1.1.65,2.27,1.44,2.98,2.46,4.65,6.69,10.53,6.69,17.84,4.69,47.25-12.92,94.13-26.83,138.23-48.65,21.84-10.81,42.99-22.72,59.67-41.05,4.52-4.96,8.39-10.38,11.16-18.19-7.54,6.84-14.23,12.66-21.86,17.24-26.69,16.04-55.55,27.24-84.64,37.89-39.18,14.34-79.06,26.5-119.05,38.33-2.96.87-7.13,3.41-8.66-1.13-1.65-4.86,3.53-4.73,6.3-5.75,5.68-2.08,11.53-3.72,17.78-5.68-2.57-6.61-5.96-12.14-7.69-18.38-5.96-21.42-3.14-42.23,3.98-62.79.85-2.45,2.33-4.65,5.3-3.34,3.18,1.39,2.38,4.27,1.54,6.77-4.54,13.49-6.87,27.31-6,41.57.58,9.53,2.64,18.67,7.23,27.17,2.58,4.78,5.86,6.71,11.29,4.49,4.05-1.66,8.58-2.13,12.8-5.13-3.43-6.23-6.89-12.33-8.95-19.06-9.16-29.92-6.21-58.53,9.23-85.79,1-1.76,2.2-3.45,3.5-5,1.38-1.65,3.16-2.86,5.3-1.31,1.97,1.43,2.1,3.39.86,5.41-.96,1.58-2.12,3.05-3.01,4.67-15.48,28.39-17.95,57.72-5.31,87.66,5.31,12.6,5.95,12.34,18.59,8.09,2.08-.7,4.31-1.14,6.06-2.71.58-2.36-1.18-3.8-2.25-5.41-24.94-37.51-17.85-81.23,6.65-114.85,1.48-2.04,3.45-3.92,6.04-2.02,2.86,2.09,1.41,4.63-.14,6.83-9.36,13.37-16.61,27.76-19.19,43.98-3.81,23.94.62,46.07,15.89,65.51,1.72,2.19,3.43,3.08,6.17,2.14,4.33-1.49,8.99-2.14,13.21-5.47-5.05-7.45-8.95-15.35-11.01-24.03-6.36-26.81-5.34-52.91,7.45-77.88,3.5-6.83,8.18-12.81,13.49-18.28,1.94-1.99,4.5-4.12,7.18-1.37,2.51,2.57.33,4.9-1.54,6.67-25.32,24.04-29.05,71.2-14.38,101.78,5.61,11.69,12.08,12.74,25.18,3.81-3.97-6.57-8.59-12.83-11.47-20.07-9.2-23.14-11.89-46.51-3.17-70.47,3.8-10.46,11.14-17.37,21.66-19.74,34.41-7.78,65.61-1.05,91.78,23.29,9.29,8.64,12.58,20.81,13.31,33.3,1.53,26.27-7.29,48.84-25.64,67.55-14.95,15.25-32.77,26.61-51.74,36.16-34.94,17.59-72.04,29.28-109.62,39.6-1.91.52-4,.66-5.47,2.25.46,1.7,1.8,2.42,3.03,3.19,13.62,8.39,27.9,15.39,42.97,20.81,3.7,1.33,6.99,1.1,10.68-.51,32.93-14.36,64.46-31.1,92.3-54.11,18.8-15.54,34.67-33.4,44.37-56.19,10.71-25.17,9.56-50.14-.75-75.03-2.69-6.51-5.52-12.96-9.25-18.98-1.41-2.27-2.65-4.81.19-6.89,2.59-1.9,4.48,0,6.3,1.64,13,11.64,22.39,25.6,27.34,42.41,1.33,4.52,3.74,7.88,7.39,11.2,16.91,15.42,28.33,34.56,35.77,56.12.95,2.75,1.47,5.97-2.2,6.9-3.41.87-4.09-2.34-4.96-4.77-6.63-18.57-16.64-35.03-31.65-49.14,0,8.92-.06,17.83.04,26.75.02,2.34,2.24,3.24,3.75,4.54,15.54,13.42,28.37,28.75,34.54,48.81.33,1.06.66,2.13.91,3.21.65,2.79.44,5.53-2.81,6.23-3.15.68-4-2.04-4.62-4.42-4.89-18.91-16.32-33.4-30.86-45.79-.52-.45-1.26-.64-2.28-1.14-2.74,5.57-3.06,11.58-4.79,17.16-.63,2.04,1.21,2.95,2.56,3.85,17.92,12.08,28.99,29.35,37.1,48.88,1.1,2.65,2.54,5.63-1.13,7.08-3.61,1.43-4.72-1.8-5.85-4.35-5.33-12.1-11.52-23.66-20.55-33.5-4.27-4.65-8.91-8.77-15.19-12.2-3.21,7.33-6.38,14.16-9.17,21.13-1.09,2.72,1.69,3.86,3.39,5.07,9.7,6.94,18.57,14.74,25.84,24.27,4.86,6.37,8.91,13.22,12.08,20.57,2.28,5.29,1.47,7.24-4.13,9.22-35.08,12.4-70.79,21.83-108.8,22.74M283.74,64.87c-9.14-5.41-16.4-12.83-22.51-22.6-.52,2.09-.82,2.97-.95,3.87-.18,1.28-.28,2.58-.33,3.87-.55,12.79,2.12,25.04,6.6,36.91,2.82,7.47,6.38,14.6,11.82,20.62,1.84,2.04,3.74,3.51,6.76,2.31,24.98-9.94,49.89-20.02,72.06-35.61,5.02-3.53,9.57-7.65,12.87-12.92,6.77-10.82,3.45-24-8.49-33.74-16.97-13.85-37.05-18.83-58.33-20.1-8.78-.52-17.4.75-25.5,4.38-10.56,4.74-14.07,13.28-10.05,24.14,1.29,3.49,3,6.72,5.42,9.63,12.61,15.18,29.44,21.18,48.46,22.36,10.24.64,20.35-.53,30.33-2.85,2.63-.61,5.61-1.03,6.58,2.18,1.04,3.45-1.91,4.27-4.49,4.99-.54.15-1.05.37-1.59.5-23.53,5.48-46.34,4.38-68.64-7.95M312.04,152.44c15.27-8.55,29.66-18.31,41.76-31.07,8.84-9.33,15.99-19.75,19.35-32.49-11.66,13.52-25.81,23.89-41.01,32.79-41.88,24.55-87.33,40.35-133.71,53.74-11.47,3.31-23.01,6.34-35.03,9.64,5.13,5.49,10.72,9.15,16.08,13.08,2.04,1.5,4.14,1.16,6.36.53,9.79-2.79,19.6-5.51,29.39-8.31,33.2-9.52,65.55-21.2,96.82-37.91M347.54,193.57c12.99-14.49,24.74-29.81,32.48-47.96-32.04,42.14-76.96,66.28-124.51,88.97,10.07,3.38,19.11,4.66,28.16,6.21,6.84,1.17,11.96-.64,17.29-4.83,16.36-12.85,32.08-26.35,46.59-42.39M400.21,114.68c-1.01,3.75-1.85,7.56-3.05,11.25-12.2,37.68-36.05,67.34-64.8,93.54-8.27,7.54-17,14.58-26.54,22.71,10.06.89,18.85,1.04,27.64-.38,1.94-.31,3.01-2.05,4.23-3.43,10.95-12.37,21.26-25.24,30.44-38.99,18.82-28.2,33.57-58.06,37.51-92.32,1.5-13.06.45-25.89-3.06-38.53,1.85,15.21,1.37,30.29-2.37,46.15M374.61,203.83c-1.88,2.6-.71,4.42,1.47,6.07,7.82,5.94,15.61,11.92,23.41,17.88,1.2.92,2.45,1.59,4.1,1.14,8.52-2.34,16.97-4.88,25.15-8.19-.14-.96-.08-1.56-.31-2.03-7.81-15.8-19.1-28.56-33.63-38.5-3.34-2.29-5.31-1.1-7.14,2.01-4.12,7.03-8.42,13.96-13.05,21.61M364.27,218.17c-5.66,7.11-11.33,14.22-17.99,22.57,16.44-1.1,30.62-4.29,45.56-8.69-8.16-7.01-15.89-12.8-23.99-18.46-1.33,1.69-2.24,2.83-3.58,4.58Z"/>
  <path class="cls-1" d="M220.39,287.46c-2.97,1.42-5.62,1.98-6.77-1.44-1.02-3.02,1.43-4.24,3.7-5.28,10.96-5,21.94-9.97,32.88-15.02,1.6-.74,3.57-1.07,4.72-3.22-6.48-3.49-14.07-3.53-20.44-6.71-12.13-6.07-24.04-6.18-36.49-.9-4.87,2.07-10.41,2.54-15.66,3.71-2.24.5-4.27.04-4.9-2.39-.7-2.68.89-4.11,3.4-4.73,7.68-1.89,15.35-3.8,23.57-5.83-2.01-3.58-5.01-4.37-7.47-5.67-15.82-8.34-30.4-18.46-44-30.06-8.14-6.94-10.2-7.08-18.71-.65-12.01,9.08-25.22,10.75-38.87,5.29-10.4-4.16-18.33-1.1-25.79,5.83-4.65,4.32-8.7,9.22-11.89,14.65-8.96,15.28-22.21,19.81-38.9,16.21-4.89-1.05-9.74-2.26-14.57-3.56-2.4-.64-4.92-1.75-4.02-4.91.92-3.23,3.8-2.6,6.05-1.99,5.73,1.57,11.48,2.9,17.38,3.72,11.38,1.59,20.2-1.66,26.53-11.83,6.09-9.79,13.26-18.7,23.72-24.53,6.08-3.38,11.99-4.56,18.6-2.21,3.31,1.18,6.75,1.99,10.13,2.98,10.09,2.96,19.01.43,27.07-5.87,10.46-8.18,16.84-8.29,27.17.38,20.47,17.19,42.76,31.39,67.77,40.92,17.68,6.73,35.87,11.43,54.8,13.75,18.54,2.28,37.04,2.37,55.47.99,27.79-2.08,54.77-8.78,81.31-17.21,1.06-.34,2.1-.74,3.18-1,2.58-.62,5.13-.41,5.88,2.52.71,2.76-1.57,3.84-3.79,4.59-12.65,4.28-25.56,7.6-38.51,10.83-1.78.44-3.63.63-5.43,2.18,3.45,3.72,8.38,3.45,12.52,4.98.67.25,1.47.14,2.21.25,2.98.42,6.65.73,5.9,4.86-.72,4.01-4.38,3.27-7.3,2.76-6.62-1.14-13.27-2.71-18.82-6.46-5.66-3.82-11.11-4.6-17.71-3.2-7.54,1.59-15.34,1.98-24.01,3.01,4.84,4.74,10.29,6.97,15.39,9.55,6.1,3.09,12.52,5.58,18.79,8.33,2.57,1.12,5.81,2.17,4.38,5.8-1.4,3.56-4.43,2.34-7.13,1.32-14.12-5.33-27.41-12.29-39.94-20.66-3.44-2.3-6.05-2.89-9.2.25-1.81,1.8-4.21,3.02-6.34,4.5-5.07,3.53-5.27,5.01-.67,9.35,6.46,6.09,14.68,8.44,23.08,10.26,2.71.59,5.47.93,8.2,1.42,2.01.36,3.6,1.29,3.43,3.61-.18,2.48-1.95,3.82-4.18,3.5-14.04-1.99-28.15-4.34-38.04-15.85-3.06-3.56-4.94-3.18-8.14-1.01-8.13,5.52-16.39,10.86-24.59,16.27-2.55,1.68-5.5,3.71-7.64.1-1.97-3.32,1.24-4.84,3.55-6.39,12.62-8.47,25.24-16.94,37.85-25.43,1.34-.9,2.99-1.54,3.59-3.77-7.68-2.44-15.84-.71-23.46-2.72-6.37-1.68-11.76.31-17.45,3.04-13.54,6.49-27.34,12.43-41.41,18.77Z"/>
</svg>
