<?xml version="1.0" encoding="UTF-8"?>
<svg id="_レイヤー_1" data-name="レイヤー 1" xmlns="http://www.w3.org/2000/svg" viewBox="0 0 510.28 238.27">
  <defs>
    <style>
      .cls-1, .cls-2 {
        fill: #fff;
      }

      .cls-2 {
        font-family: KinutaShinEnpitsuItalicStdN-2B-90ms-RKSJ-H, 'Kinuta Shin Enpitsu Italic StdN';
        font-size: 63.47px;
      }
    </style>
  </defs>
  <g>
    <path class="cls-1" d="M55.11,83.57c-12.69-11.72-24.91-22.97-37.54-34.59-2.45,1.62-1.06,5.82-1.08,9.39-.15,19.59-.13,39.18-.06,58.79.02,5.57-.15,10.14-7.87,10.18C1.41,127.39-.04,123.92,0,117.8.12,83.75,0,49.69.06,15.64.06,13.19-.6,10.43,3.53,6.98c27.44,28.42,55.02,56.96,82.67,85.6,3.64-3.57,2.29-7.31,2.31-10.63.15-20.88.19-41.77.06-62.65-.04-5.86,1.72-9.01,8.23-8.85,5.65.13,8.23,2.31,8.21,8.02-.1,35.98-.1,71.97-.19,107.93,0,1.18-.66,2.35-1.68,5.82-17.7-15.5-31.82-32.7-48.03-48.65h0Z"/>
    <path class="cls-1" d="M216.55,123.86c-.42-39.07-.5-77.31-.73-115.53-.04-5.44,1.41-8.31,7.58-8.33,6.19-.04,8.7,2.14,8.6,8.39-.21,16.01-.08,32.01-.08,49.17,8.97-2.49,16.29-5.5,24.45-4.99,14.31.89,24.34,7.46,29.93,20.52,6.59,15.41,5.59,30.53-5.09,43.56-9.02,11.03-21.37,15-35.52,10.93-6.05-1.74-11.61-4.57-18.28-.79-2.78,1.56-7.64,1.58-10.88-2.93M232.96,80.97c-.6,2.49-1.47,4.96-1.77,7.48-1.47,11.55,7.48,24.26,18.18,25.99,11.28,1.83,21.79-6.27,24.05-18.57,2.14-11.67-3.3-23.49-12.75-27.65-10.43-4.61-18.15-1.37-27.71,12.75Z"/>
    <path class="cls-1" d="M360.89,61.24c7.39,7.25,8.99,16.08,10.24,25.03.79,5.63-1.47,8.35-7.4,8.25-11.22-.15-22.47-.15-33.69.19-3.9.12-9.2-.66-10.43,4.65-1.02,4.44,2.14,7.87,5.36,10.66,8.43,7.31,20.42,6.27,28.89-3.74,4.76-5.63,8.89-5.73,13.65-1.54,5.82,5.11.15,8.66-2.66,11.86-12.01,13.63-31.61,16.43-47.28,7.1-14.19-8.47-20.32-29.46-14-48.03,8-23.56,35.64-30.81,57.35-14.44M344.9,68.38c-12.98-4.49-22.2-.1-23.29,11.32h31.26c0-5.73-3.63-8-7.98-11.32h.02Z"/>
    <path class="cls-1" d="M129.95,67.65c12.24-14.98,27.58-17.91,44.62-13.29,14.31,3.9,22.93,13.73,25.07,28.52,2.85,19.69-4.32,34.84-19.46,42.1-15.95,7.64-36.08,4.4-47.11-7.64-11.84-12.88-13.19-31.72-3.12-49.69M170.08,67.8c-10.16-3.26-18.97-1.31-25.84,7.12-5.79,7.12-6.52,21.04-1.52,29.06,5.05,8.08,12.55,11.53,22.02,10.51,9.55-1.02,16.83-8.06,19.42-18.61,2.49-10.2-2.37-20.67-14.08-28.06v-.02Z"/>
    <path class="cls-1" d="M494.83,55.21c2.76,17.47,2.56,34.52.94,51.33-1.37,14.25-16.16,23.91-31.2,22.52-16.62-1.54-26.65-11.34-27-26.94-.29-13.15,0-26.3-.15-39.45-.06-5.44.67-9.45,7.62-9.31,7.04.13,7.35,4.51,7.33,9.72-.06,11.22-.4,22.48.31,33.67.48,7.62,1.52,15.87,11.53,17.59,8.77,1.5,15.54-3.8,15.97-13.42.54-11.84.25-23.72.25-35.58s1.29-12.98,14.37-10.14l.04.02Z"/>
    <path class="cls-1" d="M386.34,121.95c-.1-20.11-.12-39.36-.08-58.62,0-4.2-.17-9.83,5.57-9.2,9.93,1.1,19.48-2.1,29.25-1.29,2.66.23,4.88,1.45,7,3.61-1.41,7.46-3.57,12.71-13.59,11.34-8.29-1.14-10.55,6.04-10.76,12.92-.4,12.19-.25,24.41-.52,36.6-.08,3.7.64,8.54-4.45,9.41-4.42.75-9.85,2.49-12.42-4.76h0Z"/>
  </g>
  <text class="cls-2" transform="translate(0 220.24)"><tspan x="0" y="0">みんなで紡ぐ物語</tspan></text>
</svg>
